<svg width="766" height="285" viewBox="0 0 766 285" fill="none" xmlns="http://www.w3.org/2000/svg">
<path d="M73.984 79.304C73.984 84.0827 72.832 88.5627 70.528 92.744C68.3093 96.9253 64.768 100.296 59.904 102.856C55.1253 105.416 49.0667 106.696 41.728 106.696H26.752V141H8.832V51.656H41.728C48.64 51.656 54.528 52.8507 59.392 55.24C64.256 57.6293 67.8827 60.9147 70.272 65.096C72.7467 69.2773 73.984 74.0133 73.984 79.304ZM40.96 92.232C45.9093 92.232 49.5787 91.1227 51.968 88.904C54.3573 86.6 55.552 83.4 55.552 79.304C55.552 70.6 50.688 66.248 40.96 66.248H26.752V92.232H40.96ZM118.195 142.152C111.368 142.152 105.224 140.659 99.763 137.672C94.3017 134.6 89.9923 130.291 86.835 124.744C83.763 119.197 82.227 112.797 82.227 105.544C82.227 98.2907 83.8057 91.8907 86.963 86.344C90.2057 80.7973 94.6003 76.5307 100.147 73.544C105.694 70.472 111.88 68.936 118.707 68.936C125.534 68.936 131.72 70.472 137.267 73.544C142.814 76.5307 147.166 80.7973 150.323 86.344C153.566 91.8907 155.187 98.2907 155.187 105.544C155.187 112.797 153.523 119.197 150.195 124.744C146.952 130.291 142.515 134.6 136.883 137.672C131.336 140.659 125.107 142.152 118.195 142.152ZM118.195 126.536C121.438 126.536 124.467 125.768 127.283 124.232C130.184 122.611 132.488 120.221 134.195 117.064C135.902 113.907 136.755 110.067 136.755 105.544C136.755 98.8027 134.963 93.64 131.379 90.056C127.88 86.3867 123.571 84.552 118.451 84.552C113.331 84.552 109.022 86.3867 105.523 90.056C102.11 93.64 100.403 98.8027 100.403 105.544C100.403 112.285 102.067 117.491 105.395 121.16C108.808 124.744 113.075 126.536 118.195 126.536ZM199.82 142.152C192.993 142.152 186.849 140.659 181.388 137.672C175.927 134.6 171.617 130.291 168.46 124.744C165.388 119.197 163.852 112.797 163.852 105.544C163.852 98.2907 165.431 91.8907 168.588 86.344C171.831 80.7973 176.225 76.5307 181.772 73.544C187.319 70.472 193.505 68.936 200.332 68.936C207.159 68.936 213.345 70.472 218.892 73.544C224.439 76.5307 228.791 80.7973 231.948 86.344C235.191 91.8907 236.812 98.2907 236.812 105.544C236.812 112.797 235.148 119.197 231.82 124.744C228.577 130.291 224.14 134.6 218.508 137.672C212.961 140.659 206.732 142.152 199.82 142.152ZM199.82 126.536C203.063 126.536 206.092 125.768 208.908 124.232C211.809 122.611 214.113 120.221 215.82 117.064C217.527 113.907 218.38 110.067 218.38 105.544C218.38 98.8027 216.588 93.64 213.004 90.056C209.505 86.3867 205.196 84.552 200.076 84.552C194.956 84.552 190.647 86.3867 187.148 90.056C183.735 93.64 182.028 98.8027 182.028 105.544C182.028 112.285 183.692 117.491 187.02 121.16C190.433 124.744 194.7 126.536 199.82 126.536ZM289.253 69.064C297.701 69.064 304.528 71.752 309.733 77.128C314.938 82.4187 317.541 89.8427 317.541 99.4V141H299.621V101.832C299.621 96.2 298.213 91.8907 295.397 88.904C292.581 85.832 288.741 84.296 283.877 84.296C278.928 84.296 275.002 85.832 272.101 88.904C269.285 91.8907 267.877 96.2 267.877 101.832V141H249.957V70.088H267.877V78.92C270.266 75.848 273.296 73.4587 276.965 71.752C280.72 69.96 284.816 69.064 289.253 69.064ZM329.974 105.288C329.974 98.12 331.382 91.7627 334.198 86.216C337.099 80.6693 340.982 76.4027 345.846 73.416C350.795 70.4293 356.299 68.936 362.358 68.936C367.649 68.936 372.257 70.0027 376.182 72.136C380.193 74.2693 383.393 76.9573 385.782 80.2V70.088H403.83V141H385.782V130.632C383.478 133.96 380.278 136.733 376.182 138.952C372.171 141.085 367.521 142.152 362.23 142.152C356.257 142.152 350.795 140.616 345.846 137.544C340.982 134.472 337.099 130.163 334.198 124.616C331.382 118.984 329.974 112.541 329.974 105.288ZM385.782 105.544C385.782 101.192 384.929 97.48 383.222 94.408C381.515 91.2507 379.211 88.8613 376.31 87.24C373.409 85.5333 370.294 84.68 366.966 84.68C363.638 84.68 360.566 85.4907 357.75 87.112C354.934 88.7333 352.63 91.1227 350.838 94.28C349.131 97.352 348.278 101.021 348.278 105.288C348.278 109.555 349.131 113.309 350.838 116.552C352.63 119.709 354.934 122.141 357.75 123.848C360.651 125.555 363.723 126.408 366.966 126.408C370.294 126.408 373.409 125.597 376.31 123.976C379.211 122.269 381.515 119.88 383.222 116.808C384.929 113.651 385.782 109.896 385.782 105.544ZM519.636 70.088L498.9 141H479.572L466.644 91.464L453.716 141H434.26L413.396 70.088H431.572L444.116 124.104L457.684 70.088H476.628L489.94 123.976L502.484 70.088H519.636ZM524.724 105.288C524.724 98.12 526.132 91.7627 528.948 86.216C531.849 80.6693 535.732 76.4027 540.596 73.416C545.545 70.4293 551.049 68.936 557.108 68.936C562.399 68.936 567.007 70.0027 570.932 72.136C574.943 74.2693 578.143 76.9573 580.532 80.2V70.088H598.58V141H580.532V130.632C578.228 133.96 575.028 136.733 570.932 138.952C566.921 141.085 562.271 142.152 556.98 142.152C551.007 142.152 545.545 140.616 540.596 137.544C535.732 134.472 531.849 130.163 528.948 124.616C526.132 118.984 524.724 112.541 524.724 105.288ZM580.532 105.544C580.532 101.192 579.679 97.48 577.972 94.408C576.265 91.2507 573.961 88.8613 571.06 87.24C568.159 85.5333 565.044 84.68 561.716 84.68C558.388 84.68 555.316 85.4907 552.5 87.112C549.684 88.7333 547.38 91.1227 545.588 94.28C543.881 97.352 543.028 101.021 543.028 105.288C543.028 109.555 543.881 113.309 545.588 116.552C547.38 119.709 549.684 122.141 552.5 123.848C555.401 125.555 558.473 126.408 561.716 126.408C565.044 126.408 568.159 125.597 571.06 123.976C573.961 122.269 576.265 119.88 577.972 116.808C579.679 113.651 580.532 109.896 580.532 105.544ZM634.002 46.28V141H616.082V46.28H634.002ZM669.627 46.28V141H651.707V46.28H669.627ZM682.724 105.288C682.724 98.12 684.132 91.7627 686.948 86.216C689.849 80.6693 693.732 76.4027 698.596 73.416C703.545 70.4293 709.049 68.936 715.108 68.936C720.399 68.936 725.007 70.0027 728.932 72.136C732.943 74.2693 736.143 76.9573 738.532 80.2V70.088H756.58V141H738.532V130.632C736.228 133.96 733.028 136.733 728.932 138.952C724.921 141.085 720.271 142.152 714.98 142.152C709.007 142.152 703.545 140.616 698.596 137.544C693.732 134.472 689.849 130.163 686.948 124.616C684.132 118.984 682.724 112.541 682.724 105.288ZM738.532 105.544C738.532 101.192 737.679 97.48 735.972 94.408C734.265 91.2507 731.961 88.8613 729.06 87.24C726.159 85.5333 723.044 84.68 719.716 84.68C716.388 84.68 713.316 85.4907 710.5 87.112C707.684 88.7333 705.38 91.1227 703.588 94.28C701.881 97.352 701.028 101.021 701.028 105.288C701.028 109.555 701.881 113.309 703.588 116.552C705.38 119.709 707.684 122.141 710.5 123.848C713.401 125.555 716.473 126.408 719.716 126.408C723.044 126.408 726.159 125.597 729.06 123.976C731.961 122.269 734.265 119.88 735.972 116.808C737.679 113.651 738.532 109.896 738.532 105.544Z" fill="#FFCC00"/>
<path d="M247.68 179.992V247H234.24V203.416L216.288 247H206.112L188.064 203.416V247H174.624V179.992H189.888L211.2 229.816L232.512 179.992H247.68ZM310.408 219.256C310.408 221.176 310.28 222.904 310.024 224.44H271.144C271.464 228.28 272.808 231.288 275.176 233.464C277.544 235.64 280.456 236.728 283.912 236.728C288.904 236.728 292.456 234.584 294.568 230.296H309.064C307.528 235.416 304.584 239.64 300.232 242.968C295.88 246.232 290.536 247.864 284.2 247.864C279.08 247.864 274.472 246.744 270.376 244.504C266.344 242.2 263.176 238.968 260.872 234.808C258.632 230.648 257.512 225.848 257.512 220.408C257.512 214.904 258.632 210.072 260.872 205.912C263.112 201.752 266.248 198.552 270.28 196.312C274.312 194.072 278.952 192.952 284.2 192.952C289.256 192.952 293.768 194.04 297.736 196.216C301.768 198.392 304.872 201.496 307.048 205.528C309.288 209.496 310.408 214.072 310.408 219.256ZM296.488 215.416C296.424 211.96 295.176 209.208 292.744 207.16C290.312 205.048 287.336 203.992 283.816 203.992C280.488 203.992 277.672 205.016 275.368 207.064C273.128 209.048 271.752 211.832 271.24 215.416H296.488ZM316.762 220.216C316.762 214.84 317.818 210.072 319.93 205.912C322.106 201.752 325.05 198.552 328.762 196.312C332.474 194.072 336.602 192.952 341.146 192.952C344.602 192.952 347.898 193.72 351.034 195.256C354.17 196.728 356.666 198.712 358.522 201.208V175.96H372.154V247H358.522V239.128C356.858 241.752 354.522 243.864 351.514 245.464C348.506 247.064 345.018 247.864 341.05 247.864C336.57 247.864 332.474 246.712 328.762 244.408C325.05 242.104 322.106 238.872 319.93 234.712C317.818 230.488 316.762 225.656 316.762 220.216ZM358.618 220.408C358.618 217.144 357.978 214.36 356.698 212.056C355.418 209.688 353.69 207.896 351.514 206.68C349.338 205.4 347.002 204.76 344.506 204.76C342.01 204.76 339.706 205.368 337.594 206.584C335.482 207.8 333.754 209.592 332.41 211.96C331.13 214.264 330.49 217.016 330.49 220.216C330.49 223.416 331.13 226.232 332.41 228.664C333.754 231.032 335.482 232.856 337.594 234.136C339.77 235.416 342.074 236.056 344.506 236.056C347.002 236.056 349.338 235.448 351.514 234.232C353.69 232.952 355.418 231.16 356.698 228.856C357.978 226.488 358.618 223.672 358.618 220.408ZM400.928 204.856V230.584C400.928 232.376 401.344 233.688 402.176 234.52C403.072 235.288 404.544 235.672 406.592 235.672H412.832V247H404.384C393.056 247 387.392 241.496 387.392 230.488V204.856H381.056V193.816H387.392V180.664H400.928V193.816H412.832V204.856H400.928ZM471.939 219.256C471.939 221.176 471.811 222.904 471.555 224.44H432.675C432.995 228.28 434.339 231.288 436.707 233.464C439.075 235.64 441.987 236.728 445.443 236.728C450.435 236.728 453.987 234.584 456.099 230.296H470.595C469.059 235.416 466.115 239.64 461.763 242.968C457.411 246.232 452.067 247.864 445.731 247.864C440.611 247.864 436.003 246.744 431.907 244.504C427.875 242.2 424.707 238.968 422.403 234.808C420.163 230.648 419.043 225.848 419.043 220.408C419.043 214.904 420.163 210.072 422.403 205.912C424.643 201.752 427.779 198.552 431.811 196.312C435.843 194.072 440.483 192.952 445.731 192.952C450.787 192.952 455.299 194.04 459.267 196.216C463.299 198.392 466.403 201.496 468.579 205.528C470.819 209.496 471.939 214.072 471.939 219.256ZM458.019 215.416C457.955 211.96 456.707 209.208 454.275 207.16C451.843 205.048 448.867 203.992 445.347 203.992C442.019 203.992 439.203 205.016 436.899 207.064C434.659 209.048 433.283 211.832 432.771 215.416H458.019ZM478.293 220.408C478.293 214.904 479.413 210.104 481.653 206.008C483.893 201.848 486.997 198.648 490.965 196.408C494.933 194.104 499.477 192.952 504.597 192.952C511.189 192.952 516.629 194.616 520.917 197.944C525.269 201.208 528.181 205.816 529.653 211.768H515.157C514.389 209.464 513.077 207.672 511.221 206.392C509.429 205.048 507.189 204.376 504.501 204.376C500.661 204.376 497.621 205.784 495.381 208.6C493.141 211.352 492.021 215.288 492.021 220.408C492.021 225.464 493.141 229.4 495.381 232.216C497.621 234.968 500.661 236.344 504.501 236.344C509.941 236.344 513.493 233.912 515.157 229.048H529.653C528.181 234.808 525.269 239.384 520.917 242.776C516.565 246.168 511.125 247.864 504.597 247.864C499.477 247.864 494.933 246.744 490.965 244.504C486.997 242.2 483.893 239 481.653 234.904C479.413 230.744 478.293 225.912 478.293 220.408ZM569.451 193.048C573.483 193.048 577.067 193.944 580.203 195.736C583.339 197.464 585.771 200.056 587.499 203.512C589.291 206.904 590.187 211 590.187 215.8V247H576.747V217.624C576.747 213.4 575.691 210.168 573.579 207.928C571.467 205.624 568.587 204.472 564.939 204.472C561.227 204.472 558.283 205.624 556.107 207.928C553.995 210.168 552.939 213.4 552.939 217.624V247H539.499V175.96H552.939V200.44C554.667 198.136 556.971 196.344 559.851 195.064C562.731 193.72 565.931 193.048 569.451 193.048Z" fill="#FFCC00"/>
</svg>
