<svg width="766" height="285" viewBox="0 0 766 285" fill="none" xmlns="http://www.w3.org/2000/svg">
<path d="M73.984 79.304C73.984 84.0827 72.832 88.5627 70.528 92.744C68.3093 96.9253 64.768 100.296 59.904 102.856C55.1253 105.416 49.0667 106.696 41.728 106.696H26.752V141H8.832V51.656H41.728C48.64 51.656 54.528 52.8507 59.392 55.24C64.256 57.6293 67.8827 60.9147 70.272 65.096C72.7467 69.2773 73.984 74.0133 73.984 79.304ZM40.96 92.232C45.9093 92.232 49.5787 91.1227 51.968 88.904C54.3573 86.6 55.552 83.4 55.552 79.304C55.552 70.6 50.688 66.248 40.96 66.248H26.752V92.232H40.96ZM118.195 142.152C111.368 142.152 105.224 140.659 99.763 137.672C94.3017 134.6 89.9923 130.291 86.835 124.744C83.763 119.197 82.227 112.797 82.227 105.544C82.227 98.2907 83.8057 91.8907 86.963 86.344C90.2057 80.7973 94.6003 76.5307 100.147 73.544C105.694 70.472 111.88 68.936 118.707 68.936C125.534 68.936 131.72 70.472 137.267 73.544C142.814 76.5307 147.166 80.7973 150.323 86.344C153.566 91.8907 155.187 98.2907 155.187 105.544C155.187 112.797 153.523 119.197 150.195 124.744C146.952 130.291 142.515 134.6 136.883 137.672C131.336 140.659 125.107 142.152 118.195 142.152ZM118.195 126.536C121.438 126.536 124.467 125.768 127.283 124.232C130.184 122.611 132.488 120.221 134.195 117.064C135.902 113.907 136.755 110.067 136.755 105.544C136.755 98.8027 134.963 93.64 131.379 90.056C127.88 86.3867 123.571 84.552 118.451 84.552C113.331 84.552 109.022 86.3867 105.523 90.056C102.11 93.64 100.403 98.8027 100.403 105.544C100.403 112.285 102.067 117.491 105.395 121.16C108.808 124.744 113.075 126.536 118.195 126.536ZM199.82 142.152C192.993 142.152 186.849 140.659 181.388 137.672C175.927 134.6 171.617 130.291 168.46 124.744C165.388 119.197 163.852 112.797 163.852 105.544C163.852 98.2907 165.431 91.8907 168.588 86.344C171.831 80.7973 176.225 76.5307 181.772 73.544C187.319 70.472 193.505 68.936 200.332 68.936C207.159 68.936 213.345 70.472 218.892 73.544C224.439 76.5307 228.791 80.7973 231.948 86.344C235.191 91.8907 236.812 98.2907 236.812 105.544C236.812 112.797 235.148 119.197 231.82 124.744C228.577 130.291 224.14 134.6 218.508 137.672C212.961 140.659 206.732 142.152 199.82 142.152ZM199.82 126.536C203.063 126.536 206.092 125.768 208.908 124.232C211.809 122.611 214.113 120.221 215.82 117.064C217.527 113.907 218.38 110.067 218.38 105.544C218.38 98.8027 216.588 93.64 213.004 90.056C209.505 86.3867 205.196 84.552 200.076 84.552C194.956 84.552 190.647 86.3867 187.148 90.056C183.735 93.64 182.028 98.8027 182.028 105.544C182.028 112.285 183.692 117.491 187.02 121.16C190.433 124.744 194.7 126.536 199.82 126.536ZM289.253 69.064C297.701 69.064 304.528 71.752 309.733 77.128C314.938 82.4187 317.541 89.8427 317.541 99.4V141H299.621V101.832C299.621 96.2 298.213 91.8907 295.397 88.904C292.581 85.832 288.741 84.296 283.877 84.296C278.928 84.296 275.002 85.832 272.101 88.904C269.285 91.8907 267.877 96.2 267.877 101.832V141H249.957V70.088H267.877V78.92C270.266 75.848 273.296 73.4587 276.965 71.752C280.72 69.96 284.816 69.064 289.253 69.064ZM329.974 105.288C329.974 98.12 331.382 91.7627 334.198 86.216C337.099 80.6693 340.982 76.4027 345.846 73.416C350.795 70.4293 356.299 68.936 362.358 68.936C367.649 68.936 372.257 70.0027 376.182 72.136C380.193 74.2693 383.393 76.9573 385.782 80.2V70.088H403.83V141H385.782V130.632C383.478 133.96 380.278 136.733 376.182 138.952C372.171 141.085 367.521 142.152 362.23 142.152C356.257 142.152 350.795 140.616 345.846 137.544C340.982 134.472 337.099 130.163 334.198 124.616C331.382 118.984 329.974 112.541 329.974 105.288ZM385.782 105.544C385.782 101.192 384.929 97.48 383.222 94.408C381.515 91.2507 379.211 88.8613 376.31 87.24C373.409 85.5333 370.294 84.68 366.966 84.68C363.638 84.68 360.566 85.4907 357.75 87.112C354.934 88.7333 352.63 91.1227 350.838 94.28C349.131 97.352 348.278 101.021 348.278 105.288C348.278 109.555 349.131 113.309 350.838 116.552C352.63 119.709 354.934 122.141 357.75 123.848C360.651 125.555 363.723 126.408 366.966 126.408C370.294 126.408 373.409 125.597 376.31 123.976C379.211 122.269 381.515 119.88 383.222 116.808C384.929 113.651 385.782 109.896 385.782 105.544ZM519.636 70.088L498.9 141H479.572L466.644 91.464L453.716 141H434.26L413.396 70.088H431.572L444.116 124.104L457.684 70.088H476.628L489.94 123.976L502.484 70.088H519.636ZM524.724 105.288C524.724 98.12 526.132 91.7627 528.948 86.216C531.849 80.6693 535.732 76.4027 540.596 73.416C545.545 70.4293 551.049 68.936 557.108 68.936C562.399 68.936 567.007 70.0027 570.932 72.136C574.943 74.2693 578.143 76.9573 580.532 80.2V70.088H598.58V141H580.532V130.632C578.228 133.96 575.028 136.733 570.932 138.952C566.921 141.085 562.271 142.152 556.98 142.152C551.007 142.152 545.545 140.616 540.596 137.544C535.732 134.472 531.849 130.163 528.948 124.616C526.132 118.984 524.724 112.541 524.724 105.288ZM580.532 105.544C580.532 101.192 579.679 97.48 577.972 94.408C576.265 91.2507 573.961 88.8613 571.06 87.24C568.159 85.5333 565.044 84.68 561.716 84.68C558.388 84.68 555.316 85.4907 552.5 87.112C549.684 88.7333 547.38 91.1227 545.588 94.28C543.881 97.352 543.028 101.021 543.028 105.288C543.028 109.555 543.881 113.309 545.588 116.552C547.38 119.709 549.684 122.141 552.5 123.848C555.401 125.555 558.473 126.408 561.716 126.408C565.044 126.408 568.159 125.597 571.06 123.976C573.961 122.269 576.265 119.88 577.972 116.808C579.679 113.651 580.532 109.896 580.532 105.544ZM634.002 46.28V141H616.082V46.28H634.002ZM669.627 46.28V141H651.707V46.28H669.627ZM682.724 105.288C682.724 98.12 684.132 91.7627 686.948 86.216C689.849 80.6693 693.732 76.4027 698.596 73.416C703.545 70.4293 709.049 68.936 715.108 68.936C720.399 68.936 725.007 70.0027 728.932 72.136C732.943 74.2693 736.143 76.9573 738.532 80.2V70.088H756.58V141H738.532V130.632C736.228 133.96 733.028 136.733 728.932 138.952C724.921 141.085 720.271 142.152 714.98 142.152C709.007 142.152 703.545 140.616 698.596 137.544C693.732 134.472 689.849 130.163 686.948 124.616C684.132 118.984 682.724 112.541 682.724 105.288ZM738.532 105.544C738.532 101.192 737.679 97.48 735.972 94.408C734.265 91.2507 731.961 88.8613 729.06 87.24C726.159 85.5333 723.044 84.68 719.716 84.68C716.388 84.68 713.316 85.4907 710.5 87.112C707.684 88.7333 705.38 91.1227 703.588 94.28C701.881 97.352 701.028 101.021 701.028 105.288C701.028 109.555 701.881 113.309 703.588 116.552C705.38 119.709 707.684 122.141 710.5 123.848C713.401 125.555 716.473 126.408 719.716 126.408C723.044 126.408 726.159 125.597 729.06 123.976C731.961 122.269 734.265 119.88 735.972 116.808C737.679 113.651 738.532 109.896 738.532 105.544Z" fill="#FFCC00"/>
<path d="M274.28 200.152C272.744 197.336 270.632 195.192 267.944 193.72C265.256 192.248 262.12 191.512 258.536 191.512C254.568 191.512 251.048 192.408 247.976 194.2C244.904 195.992 242.504 198.552 240.776 201.88C239.048 205.208 238.184 209.048 238.184 213.4C238.184 217.88 239.048 221.784 240.776 225.112C242.568 228.44 245.032 231 248.168 232.792C251.304 234.584 254.952 235.48 259.112 235.48C264.232 235.48 268.424 234.136 271.688 231.448C274.952 228.696 277.096 224.888 278.12 220.024H255.08V209.752H291.368V221.464C290.472 226.136 288.552 230.456 285.608 234.424C282.664 238.392 278.856 241.592 274.184 244.024C269.576 246.392 264.392 247.576 258.632 247.576C252.168 247.576 246.312 246.136 241.064 243.256C235.88 240.312 231.784 236.248 228.776 231.064C225.832 225.88 224.36 219.992 224.36 213.4C224.36 206.808 225.832 200.92 228.776 195.736C231.784 190.488 235.88 186.424 241.064 183.544C246.312 180.6 252.136 179.128 258.536 179.128C266.088 179.128 272.648 180.984 278.216 184.696C283.784 188.344 287.624 193.496 289.736 200.152H274.28ZM314.752 202.072C316.48 199.256 318.72 197.048 321.472 195.448C324.288 193.848 327.488 193.048 331.072 193.048V207.16H327.52C323.296 207.16 320.096 208.152 317.92 210.136C315.808 212.12 314.752 215.576 314.752 220.504V247H301.312V193.816H314.752V202.072ZM363.74 247.864C358.62 247.864 354.012 246.744 349.916 244.504C345.82 242.2 342.588 238.968 340.22 234.808C337.916 230.648 336.764 225.848 336.764 220.408C336.764 214.968 337.948 210.168 340.316 206.008C342.748 201.848 346.044 198.648 350.204 196.408C354.364 194.104 359.004 192.952 364.124 192.952C369.244 192.952 373.884 194.104 378.044 196.408C382.204 198.648 385.468 201.848 387.836 206.008C390.268 210.168 391.484 214.968 391.484 220.408C391.484 225.848 390.236 230.648 387.74 234.808C385.308 238.968 381.98 242.2 377.756 244.504C373.596 246.744 368.924 247.864 363.74 247.864ZM363.74 236.152C366.172 236.152 368.444 235.576 370.556 234.424C372.732 233.208 374.46 231.416 375.74 229.048C377.02 226.68 377.66 223.8 377.66 220.408C377.66 215.352 376.316 211.48 373.628 208.792C371.004 206.04 367.772 204.664 363.932 204.664C360.092 204.664 356.86 206.04 354.236 208.792C351.676 211.48 350.396 215.352 350.396 220.408C350.396 225.464 351.644 229.368 354.14 232.12C356.7 234.808 359.9 236.152 363.74 236.152ZM451.551 193.816V247H438.015V240.28C436.287 242.584 434.015 244.408 431.199 245.752C428.447 247.032 425.439 247.672 422.175 247.672C418.015 247.672 414.335 246.808 411.135 245.08C407.935 243.288 405.407 240.696 403.551 237.304C401.759 233.848 400.863 229.752 400.863 225.016V193.816H414.303V223.096C414.303 227.32 415.359 230.584 417.471 232.888C419.583 235.128 422.463 236.248 426.111 236.248C429.823 236.248 432.735 235.128 434.847 232.888C436.959 230.584 438.015 227.32 438.015 223.096V193.816H451.551ZM478.252 201.496C479.98 199.064 482.348 197.048 485.356 195.448C488.428 193.784 491.916 192.952 495.82 192.952C500.364 192.952 504.46 194.072 508.108 196.312C511.82 198.552 514.732 201.752 516.844 205.912C519.02 210.008 520.108 214.776 520.108 220.216C520.108 225.656 519.02 230.488 516.844 234.712C514.732 238.872 511.82 242.104 508.108 244.408C504.46 246.712 500.364 247.864 495.82 247.864C491.916 247.864 488.46 247.064 485.452 245.464C482.508 243.864 480.108 241.848 478.252 239.416V272.344H464.812V193.816H478.252V201.496ZM506.38 220.216C506.38 217.016 505.708 214.264 504.364 211.96C503.084 209.592 501.356 207.8 499.18 206.584C497.068 205.368 494.764 204.76 492.268 204.76C489.836 204.76 487.532 205.4 485.356 206.68C483.244 207.896 481.516 209.688 480.172 212.056C478.892 214.424 478.252 217.208 478.252 220.408C478.252 223.608 478.892 226.392 480.172 228.76C481.516 231.128 483.244 232.952 485.356 234.232C487.532 235.448 489.836 236.056 492.268 236.056C494.764 236.056 497.068 235.416 499.18 234.136C501.356 232.856 503.084 231.032 504.364 228.664C505.708 226.296 506.38 223.48 506.38 220.216Z" fill="#FFCC00"/>
</svg>
